<svg width="214" height="87" viewBox="0 0 214 87" fill="none" xmlns="http://www.w3.org/2000/svg">
<path d="M91.1944 68.5C90.7624 68.5 90.4024 68.356 90.1144 68.068C89.8264 67.732 89.6824 67.348 89.6824 66.916C89.6824 66.724 89.7304 66.508 89.8264 66.268L106.818 27.748H84.7144C84.2344 27.748 83.8024 27.58 83.4184 27.244C83.0824 26.908 82.9144 26.5 82.9144 26.02V19.9C82.9144 19.372 83.0824 18.94 83.4184 18.604C83.8024 18.268 84.2344 18.1 84.7144 18.1H117.33C117.906 18.1 118.338 18.268 118.626 18.604C118.962 18.94 119.13 19.372 119.13 19.9V25.3C119.13 26.02 119.058 26.62 118.914 27.1C118.818 27.532 118.65 27.988 118.41 28.468L101.49 66.772C101.346 67.06 101.082 67.42 100.698 67.852C100.362 68.284 99.8104 68.5 99.0424 68.5H91.1944ZM145.023 69.22C141.663 69.22 138.687 68.836 136.095 68.068C133.551 67.252 131.415 66.148 129.687 64.756C127.959 63.316 126.663 61.66 125.799 59.788C124.935 57.868 124.503 55.78 124.503 53.524C124.503 50.788 125.175 48.412 126.519 46.396C127.863 44.38 129.567 42.82 131.631 41.716C129.951 40.612 128.631 39.22 127.671 37.54C126.759 35.812 126.303 33.82 126.303 31.564C126.303 28.828 126.999 26.404 128.391 24.292C129.783 22.18 131.847 20.5 134.583 19.252C137.367 18.004 140.847 17.38 145.023 17.38C149.151 17.38 152.583 18.004 155.319 19.252C158.055 20.452 160.119 22.108 161.511 24.22C162.903 26.332 163.599 28.756 163.599 31.492C163.599 33.748 163.143 35.74 162.231 37.468C161.319 39.196 160.023 40.612 158.343 41.716C160.551 42.772 162.303 44.332 163.599 46.396C164.895 48.46 165.543 50.86 165.543 53.596C165.543 56.572 164.775 59.236 163.239 61.588C161.703 63.94 159.399 65.812 156.327 67.204C153.255 68.548 149.487 69.22 145.023 69.22ZM145.023 60.94C146.703 60.94 148.239 60.652 149.631 60.076C151.023 59.452 152.103 58.588 152.871 57.484C153.687 56.38 154.095 55.084 154.095 53.596C154.095 52.06 153.687 50.764 152.871 49.708C152.103 48.604 151.023 47.764 149.631 47.188C148.239 46.564 146.703 46.252 145.023 46.252C143.295 46.252 141.735 46.564 140.343 47.188C138.999 47.764 137.919 48.604 137.103 49.708C136.287 50.764 135.879 52.06 135.879 53.596C135.879 55.084 136.287 56.38 137.103 57.484C137.919 58.588 138.999 59.452 140.343 60.076C141.735 60.652 143.295 60.94 145.023 60.94ZM145.023 38.404C146.511 38.356 147.855 38.068 149.055 37.54C150.255 37.012 151.215 36.292 151.935 35.38C152.655 34.42 153.015 33.316 153.015 32.068C153.015 30.772 152.655 29.668 151.935 28.756C151.263 27.796 150.327 27.052 149.127 26.524C147.927 25.996 146.559 25.732 145.023 25.732C143.487 25.732 142.095 25.996 140.847 26.524C139.647 27.052 138.711 27.796 138.039 28.756C137.367 29.668 137.031 30.772 137.031 32.068C137.031 33.364 137.367 34.492 138.039 35.452C138.711 36.364 139.647 37.084 140.847 37.612C142.095 38.14 143.487 38.404 145.023 38.404Z" fill="#0956AF"/>
<path d="M181.53 15.47C181.389 15.3296 181.199 15.2507 181 15.2507C180.801 15.2507 180.611 15.3296 180.47 15.47L173.47 22.47C173.365 22.5749 173.294 22.7085 173.265 22.8539C173.236 22.9993 173.251 23.15 173.308 23.2869C173.364 23.4239 173.46 23.541 173.584 23.6234C173.707 23.7058 173.852 23.7499 174 23.75H188C188.148 23.7499 188.293 23.7058 188.416 23.6234C188.54 23.541 188.636 23.4239 188.692 23.2869C188.749 23.15 188.764 22.9993 188.735 22.8539C188.706 22.7085 188.635 22.5749 188.53 22.47L181.53 15.47Z" fill="#28A264"/>
<path d="M195.535 30.5C195.301 30.5 195.109 30.4253 194.959 30.276C194.81 30.1267 194.735 29.9347 194.735 29.7V27.78C194.735 27.6093 194.778 27.3853 194.863 27.108C194.97 26.8093 195.194 26.5213 195.535 26.244L199.759 22.052C201.317 20.8573 202.575 19.844 203.535 19.012C204.517 18.18 205.242 17.4227 205.711 16.74C206.181 16.0573 206.415 15.396 206.415 14.756C206.415 13.924 206.181 13.2413 205.711 12.708C205.263 12.1533 204.527 11.876 203.503 11.876C202.821 11.876 202.245 12.0253 201.775 12.324C201.327 12.6013 200.975 12.9747 200.719 13.444C200.463 13.9133 200.293 14.4253 200.207 14.98C200.143 15.2573 200.005 15.4493 199.791 15.556C199.599 15.6627 199.397 15.716 199.183 15.716H195.791C195.578 15.716 195.407 15.652 195.279 15.524C195.151 15.3747 195.087 15.2147 195.087 15.044C195.109 14.0627 195.311 13.1347 195.695 12.26C196.101 11.3853 196.666 10.6067 197.391 9.924C198.117 9.24133 198.991 8.708 200.015 8.324C201.039 7.91867 202.202 7.716 203.503 7.716C205.295 7.716 206.799 8.01467 208.015 8.612C209.231 9.188 210.149 9.988 210.767 11.012C211.386 12.036 211.695 13.22 211.695 14.564C211.695 15.588 211.482 16.5373 211.055 17.412C210.65 18.2867 210.053 19.1293 209.263 19.94C208.474 20.7293 207.535 21.5507 206.447 22.404L202.671 26.18H211.375C211.61 26.18 211.802 26.2547 211.951 26.404C212.101 26.5533 212.175 26.7453 212.175 26.98V29.7C212.175 29.9347 212.101 30.1267 211.951 30.276C211.802 30.4253 211.61 30.5 211.375 30.5H195.535Z" fill="#28A264"/>
</svg>
